<svg width="238" height="236" viewBox="0 0 238 236" fill="none" xmlns="http://www.w3.org/2000/svg">
<g clip-path="url(#clip0_2002_206)">
<path d="M6.02452 183.31C8.88489 180.485 11.972 177.88 14.4223 174.653C16.2418 174.436 17.1289 175.862 18.2053 176.877C22.418 180.848 26.2344 185.22 30.7606 188.877C50.4579 204.801 73.1438 213.314 98.0632 216.507C117.906 219.048 137.489 217.952 156.869 213.026C160.039 212.22 162.683 210.944 164.885 208.373C167.518 205.301 170.148 202.252 172.51 198.954C174.351 196.387 175.717 196.424 177.552 198.954C178.587 200.373 179.351 201.972 179.806 203.669C180.269 205.423 181.079 205.644 182.642 204.803C190.757 200.501 198.375 195.318 205.36 189.349C210.357 185.068 214.625 180.092 219.102 175.303C219.739 174.622 220.72 173.796 220.285 172.773C219.849 171.751 218.589 172.015 217.647 171.901C213.527 171.397 212.827 170.321 214.838 166.569C218.475 159.782 221.647 152.878 222.697 145.138C223.967 135.787 223.279 126.56 220.923 117.492C215.538 96.6647 206.32 77.6307 192.836 60.909C175.757 39.7323 153.688 27.1417 126.484 23.9605C121.262 23.3523 116.067 23.0264 110.847 23.8064C86.8267 26.9975 66.1811 37.1297 49.2199 54.4359C41.2874 62.5322 35.4326 72.2082 30.0864 82.1725C22.8576 95.6419 17.0067 109.621 14.4775 124.826C13.4919 130.782 13.1232 136.769 14.0832 142.776C14.8461 150.477 17.6119 157.513 21.107 164.33C24.3853 170.72 23.9812 171.375 16.713 172.195C15.4356 172.337 14.097 172.706 13.0976 171.452C8.16931 168.006 6.00085 162.667 4.01771 157.402C-0.634588 145.043 -0.208785 132.324 2.24353 119.585C4.94423 105.62 10.1623 92.5594 16.9436 80.1089C17.8721 78.4047 18.1363 77.5655 16.3365 75.9285C3.5801 64.3331 -0.813975 49.6433 2.76396 33.0678C6.19404 17.1537 15.8712 5.85845 31.8014 1.42921C45.1787 -2.29309 57.805 -0.51784 67.979 10.2363C70.8886 13.3109 72.5721 17.1023 74.3226 20.9155C84.3132 16.0735 94.6153 12.7165 105.519 11.1151C124.552 8.32088 142.713 11.044 159.982 19.4345C162.312 20.566 162.825 20.1256 163.903 18.0068C169.507 6.98007 178.623 0.870374 190.942 0.0962941C209.166 -1.04705 223.652 7.89436 231.535 24.7543C238.622 39.9101 235.614 59.7893 224.397 72.0048C223.73 72.7275 223.253 73.7326 222.453 74.2026C218.296 76.6394 219.589 79.3368 221.414 82.7076C228.639 96.0783 233.542 110.304 235.773 125.361C237.587 137.604 236.335 149.541 231.397 160.986C231.016 161.537 231.397 162.195 231.158 162.764C228.87 166.595 228.82 170.347 230.975 174.359C232.002 176.275 233.307 178.33 232.824 180.781C226.632 189.469 219.005 196.776 210.803 203.519C190.127 220.502 166.336 230.652 140.032 234.342C104.088 239.384 70.4648 232.18 39.4087 213.213C26.9894 205.622 16.4173 195.939 6.97863 184.936C6.60408 184.466 6.35176 183.863 6.02452 183.31Z" fill="#4D4D4D"/>
<path d="M232.862 180.795C230.776 177.268 229.625 173.305 228.109 169.555C227.166 167.225 229.489 164.632 230.754 162.319C233.205 166.269 236.024 170.034 236.729 174.819C235.485 176.841 234.937 179.321 232.862 180.795Z" fill="#4D4D4D"/>
<path d="M236.729 174.819C234.738 170.653 231.677 166.997 230.754 162.319L231.434 160.996C232.503 162.596 233.315 164.478 234.697 165.736C236.865 167.71 237.593 170.115 237.971 172.797L236.729 174.819Z" fill="#4D4D4D"/>
<path d="M110.701 23.0284C118.46 21.5592 126.137 22.5999 133.742 24.0513C167.28 30.4532 190.516 50.5517 206.681 79.7376C214.172 93.2663 220.283 107.401 223.119 122.746C225.879 137.648 224.383 151.915 216.691 165.236C216.253 165.992 215.873 166.782 215.473 167.558C213.803 170.805 213.805 170.797 217.3 171.004C219.033 171.107 220.764 171.249 223.214 171.423C211.593 187.278 197.009 198.628 179.89 207.425C179.102 204.507 178.481 201.641 176.827 199.238C175.841 197.795 174.856 196.626 173.405 199.169C170.783 203.741 167.097 207.518 163.59 211.424C162.653 212.471 161.441 212.872 160.165 213.201C124.769 222.482 90.1286 220.705 56.435 205.927C41.6265 199.428 28.9549 189.87 17.8781 178.135C16.7544 176.95 15.5736 175.809 14.4204 174.645C13.829 174.053 13.2869 173.409 12.6462 172.868C11.5048 171.918 12.4707 171.747 13.1213 171.437C15.5894 171.205 18.0614 170.986 20.5295 170.739C22.7176 170.52 22.8694 169.58 21.8364 167.748C17.8564 160.68 14.5741 153.333 13.4367 145.191C13.3164 144.336 13.3066 143.463 13.2395 142.6C14.791 142.798 14.9388 144.166 15.3094 145.236C21.6176 163.502 33.9147 176.563 50.3377 186.187C63.8313 194.098 78.283 199.175 93.7677 200.988C111.243 203.032 128.136 200.893 144.202 193.156C161.236 184.951 175.575 173.245 187.989 159.231C196.237 149.922 202.762 139.375 205.184 126.846C208.126 111.627 205.608 97.267 198.214 83.6969C188.825 66.4618 176.018 52.3427 159.793 41.3397C146.388 32.2561 131.814 26.0911 115.492 24.6792C113.794 24.541 111.969 24.5548 110.701 23.0284Z" fill="#F1F1F1"/>
<path d="M110.701 23.0284C120.806 24.0434 130.732 25.793 140.2 29.7048C152.089 34.606 162.91 41.2548 172.459 49.8309C183.08 59.3707 192.229 70.1841 198.927 82.8991C209.675 103.302 210.952 123.825 199.46 144.433C190.039 161.332 176.135 173.867 160.52 184.805C151.586 191.095 141.719 195.938 131.282 199.155C124.926 201.11 118.439 202.145 111.738 202.512C91.6308 203.64 72.8264 199.155 55.1102 189.973C40.9739 182.655 28.6729 173.076 20.5373 158.958C17.5449 153.765 15.3134 148.22 13.2435 142.608C11.2722 129.911 14.0951 117.839 18.3827 106.076C25.3473 86.969 34.3503 68.8551 48.461 53.9956C65.3611 36.2213 86.2688 25.9055 110.701 23.0284Z" fill="#FEFEFE"/>
<path d="M213.696 20.6647C226.116 31.2649 226.76 52.7298 215.003 65.1723C214.034 66.2088 213.009 67.1911 211.932 68.1146C211.358 68.6043 210.901 69.7951 209.85 68.9894C208.865 68.2292 209.225 67.4096 209.805 66.4361C211.309 63.9046 212.796 61.3414 214.012 58.6657C217.704 50.5576 218.481 42.2521 214.936 33.8872C208.277 18.1786 187.831 14.7841 177.326 24.1283C177.093 24.3258 176.75 24.4166 176.458 24.5568C176.391 20.7674 179.053 18.9349 181.939 17.7738C191.344 13.9843 200.597 14.5965 209.557 19.3989C210.844 20.0881 211.964 21.4032 213.696 20.6647Z" fill="white"/>
<path d="M55.0018 20.6252C49.7108 19.004 44.3074 18.3622 38.8686 19.4878C26.9894 21.9463 18.0712 35.7593 19.944 48.2887C20.7818 53.9205 23.0803 58.9264 25.6292 63.8888C26.4907 65.5673 27.8509 67.1668 27.3739 69.2994C26.3882 69.3942 25.8402 68.8828 25.2626 68.3615C16.4232 60.3876 12.9182 50.3681 13.9098 38.6325C13.9433 38.2237 14.2055 37.8426 14.3612 37.4358C15.5795 37.9117 15.1872 36.7585 15.3469 36.3477C20.1411 24.6832 28.3437 17.1932 41.0626 15.26C45.2497 14.6222 49.3146 15.3133 53.1862 16.9207C54.6726 17.5447 56.2792 18.4748 55.0018 20.6252Z" fill="white"/>
<path d="M55.0018 20.6252C55.0747 18.3859 53.4109 17.8014 51.7531 17.2682C43.8816 14.7524 36.4833 16.3421 29.5265 20.248C22.6506 24.1085 18.8932 30.6092 15.8239 37.576C15.5617 38.1684 15.3409 38.7845 15.0827 39.3789C15.0492 39.4539 14.8974 39.4756 14.6884 39.5763C14.5741 38.8417 14.4637 38.1427 14.3553 37.4417C16.2497 18.8796 35.9471 6.76284 52.6717 13.9112C58.4536 16.3816 61.8048 20.8898 63.2241 26.9699C60.7107 24.5055 58.1224 22.2227 55.0018 20.6252Z" fill="#F5F9FA"/>
<path d="M213.696 20.6647C213.018 23.5023 211.495 21.9562 210.345 21.2058C201.768 15.5897 192.702 15.2106 183.163 18.2753C179.812 19.3515 178.122 21.8594 176.46 24.5568L173.701 27.7558C173.469 27.5465 173.239 27.3365 173.011 27.1259C174.785 21.1524 178.211 16.346 184.208 13.9626C195.468 9.48595 205.127 12.8805 213.696 20.6647Z" fill="#F4FAFB"/>
<path d="M191.048 122.024C190.888 131.455 186.82 138.287 178.942 142.383C170.911 146.559 162.777 146.218 155.03 141.168C140.914 131.962 131.621 108.586 135.755 92.6205C138.457 82.1863 147.145 77.1982 157.585 80.0457C162.908 81.4951 167.158 84.6053 171.104 88.298C177.369 94.1569 182.747 100.739 187.072 108.136C189.637 112.531 191.328 117.223 191.048 122.024Z" fill="#4D4D4D"/>
<path d="M84.8771 79.4119C94.6252 79.4435 101.117 84.9212 102.124 94.9764C103.94 113.076 97.7872 128.428 83.6391 139.905C74.3739 147.408 63.1374 146.94 54.4242 139.818C46.5685 133.388 43.9191 121.435 48.8829 111.402C54.4088 100.159 62.6472 90.4742 72.852 83.225C76.5975 80.5394 80.8576 79.3151 84.8771 79.4119Z" fill="#4D4D4D"/>
<path d="M119.669 139.375C125.056 139.269 131.059 140.142 136.734 142.711C142.978 145.536 144.141 149.729 140.117 155.218C136.782 159.76 132.2 162.377 126.622 162.933C124.536 163.143 123.905 163.887 123.726 165.896C123.119 172.728 128.628 176.871 136.313 175.228C141.742 174.067 145.655 170.751 148.929 166.47C152.034 162.41 153.577 161.814 155.953 163.621C158.151 165.293 158.052 167.59 155.618 171.446C148.692 182.418 136.322 187.358 125.553 183.454C122.971 182.517 114.364 182.53 111.785 183.407C97.7123 188.194 85.9613 179.835 80.3982 168.836C79.2765 166.614 79.8265 164.519 82.1231 163.228C84.3586 161.972 86.0381 162.815 87.4161 164.784C89.6181 167.943 92.1847 170.765 95.4492 172.848C100.437 176.034 105.617 176.543 110.894 173.599C113.737 172.019 115.034 166.369 113.228 163.785C112.637 162.939 111.713 163.08 110.863 163.018C104.478 162.564 99.8235 159.233 96.427 154.036C93.5764 149.673 94.6134 145.817 99.2538 143.467C105.402 140.361 112.028 139.281 119.669 139.375Z" fill="#4D4D4D"/>
<path d="M161.1 122.845C165.117 119.419 166.817 115.736 164.688 111.195C163.331 108.308 160.617 107.261 157.652 107.245C154.198 107.227 151.738 108.991 150.443 112.419C149.597 106.297 152.903 101.73 158.462 101.163C165.131 100.488 171.355 105.612 171.855 112.192C172.34 118.606 168.644 122.549 161.1 122.845Z" fill="#F8FBFB"/>
<path d="M76.4694 122.648C70.3978 123.438 65.9426 119.743 65.5976 113.639C65.2171 106.888 71.0108 101.001 77.8631 101.199C83.5996 101.357 87.5718 105.952 86.9903 111.757C83.5602 107.018 78.5136 105.855 74.7682 108.922C70.7565 112.21 71.3834 117.253 76.4694 122.648Z" fill="#F7FAFB"/>
<path d="M118.646 149.28C115.16 149.28 111.665 149.138 108.198 149.328C105.531 149.472 104.255 148.064 103.938 145.827C103.644 143.743 105.684 143.639 107.037 143.281C114.612 141.289 122.273 140.815 129.904 142.764C131.37 143.137 133.959 143.068 133.383 146.034C132.877 148.645 131.447 149.531 128.774 149.326C125.423 149.067 122.024 149.263 118.646 149.263V149.28Z" fill="#717171"/>
</g>
<defs>
<clipPath id="clip0_2002_206">
<rect width="238" height="236" fill="white"/>
</clipPath>
</defs>
</svg>
