<svg width="28" height="28" viewBox="0 0 28 28" fill="none" xmlns="http://www.w3.org/2000/svg">
<path d="M23.3334 14.32C23.3334 14.763 23.0042 15.1291 22.5771 15.187L22.4584 15.195L4.95837 15.195C4.47512 15.195 4.08337 14.8033 4.08337 14.32C4.08337 13.877 4.41255 13.5109 4.83964 13.453L4.95837 13.445L22.4584 13.445C22.9416 13.445 23.3334 13.8368 23.3334 14.32Z" fill="#212121"/>
<path d="M12.6339 20.7284C12.9763 21.0694 12.9775 21.6234 12.6365 21.9659C12.3266 22.2772 11.8405 22.3065 11.4974 22.053L11.3991 21.9685L4.34076 14.9405C4.02852 14.6296 4.00011 14.1418 4.25556 13.7987L4.34071 13.7005L11.399 6.67132C11.7415 6.33031 12.2955 6.33146 12.6365 6.67388C12.9465 6.98516 12.9737 7.47133 12.7188 7.81335L12.6339 7.91131L6.19855 14.3208L12.6339 20.7284Z" fill="#212121"/>
</svg>
