<svg width="18" height="18" viewBox="0 0 18 18" fill="none" xmlns="http://www.w3.org/2000/svg">
<mask id="mask0_224_79" style="mask-type:luminance" maskUnits="userSpaceOnUse" x="0" y="0" width="17" height="17">
<path fill-rule="evenodd" clip-rule="evenodd" d="M0 0H16.9186V16.9188H0V0Z" fill="white"/>
</mask>
<g mask="url(#mask0_224_79)">
<path fill-rule="evenodd" clip-rule="evenodd" d="M8.45958 1.30298C4.51329 1.30298 1.30274 4.51266 1.30274 8.45896C1.30274 12.4053 4.51329 15.6158 8.45958 15.6158C12.405 15.6158 15.6156 12.4053 15.6156 8.45896C15.6156 4.51266 12.405 1.30298 8.45958 1.30298ZM8.45958 16.9188C3.79491 16.9188 -0.000244141 13.1236 -0.000244141 8.45896C-0.000244141 3.79428 3.79491 0 8.45958 0C13.1243 0 16.9185 3.79428 16.9185 8.45896C16.9185 13.1236 13.1243 16.9188 8.45958 16.9188Z" fill="#BDBDBD"/>
</g>
<mask id="mask1_224_79" style="mask-type:luminance" maskUnits="userSpaceOnUse" x="13" y="13" width="5" height="5">
<path fill-rule="evenodd" clip-rule="evenodd" d="M13.2385 13.644H17.6027V18.0001H13.2385V13.644Z" fill="white"/>
</mask>
<g mask="url(#mask1_224_79)">
<path fill-rule="evenodd" clip-rule="evenodd" d="M16.9514 18.0001C16.7855 18.0001 16.6187 17.9367 16.491 17.8098L13.4298 14.7574C13.1753 14.5029 13.1745 14.0903 13.429 13.8357C13.6826 13.5795 14.0952 13.5812 14.3506 13.834L17.4118 16.8873C17.6663 17.1418 17.6671 17.5536 17.4126 17.8081C17.2858 17.9367 17.1182 18.0001 16.9514 18.0001Z" fill="#BDBDBD"/>
</g>
</svg>
